<mxfile host="app.diagrams.net" agent="Mozilla/5.0 (Windows NT 10.0; Win64; x64; rv:133.0) Gecko/20100101 Firefox/133.0" version="25.0.3">
  <diagram id="C5RBs43oDa-KdzZeNtuy" name="Page-1">
    <mxGraphModel dx="1077" dy="597" grid="1" gridSize="10" guides="1" tooltips="1" connect="1" arrows="1" fold="1" page="1" pageScale="1" pageWidth="827" pageHeight="1169" math="0" shadow="0">
      <root>
        <mxCell id="WIyWlLk6GJQsqaUBKTNV-0" />
        <mxCell id="WIyWlLk6GJQsqaUBKTNV-1" parent="WIyWlLk6GJQsqaUBKTNV-0" />
        <mxCell id="NNcjx37EwXT--_4ioJn4-33" style="edgeStyle=orthogonalEdgeStyle;shape=connector;curved=0;rounded=1;orthogonalLoop=1;jettySize=auto;html=1;exitX=0.5;exitY=1;exitDx=0;exitDy=0;entryX=0.5;entryY=0;entryDx=0;entryDy=0;strokeColor=default;align=center;verticalAlign=middle;fontFamily=Helvetica;fontSize=11;fontColor=default;labelBackgroundColor=default;endArrow=classic;" edge="1" parent="WIyWlLk6GJQsqaUBKTNV-1" source="NNcjx37EwXT--_4ioJn4-3" target="NNcjx37EwXT--_4ioJn4-18">
          <mxGeometry relative="1" as="geometry" />
        </mxCell>
        <mxCell id="NNcjx37EwXT--_4ioJn4-3" value="Läs in &lt;font color=&quot;#004c99&quot;&gt;[sökord]&lt;/font&gt;" style="shape=parallelogram;perimeter=parallelogramPerimeter;whiteSpace=wrap;html=1;fixedSize=1;fillColor=#bac8d3;strokeColor=#23445d;" vertex="1" parent="WIyWlLk6GJQsqaUBKTNV-1">
          <mxGeometry x="355" y="140" width="119" height="30" as="geometry" />
        </mxCell>
        <mxCell id="NNcjx37EwXT--_4ioJn4-4" value="* Utgår från &lt;font color=&quot;#00cc00&quot;&gt;[inläggslistan]&lt;/font&gt; i programmet *" style="text;html=1;align=center;verticalAlign=middle;whiteSpace=wrap;rounded=0;" vertex="1" parent="WIyWlLk6GJQsqaUBKTNV-1">
          <mxGeometry x="146.5" y="57.75" width="225" height="30" as="geometry" />
        </mxCell>
        <mxCell id="NNcjx37EwXT--_4ioJn4-35" style="edgeStyle=orthogonalEdgeStyle;shape=connector;curved=0;rounded=1;orthogonalLoop=1;jettySize=auto;html=1;exitX=0.5;exitY=1;exitDx=0;exitDy=0;entryX=0.5;entryY=0;entryDx=0;entryDy=0;strokeColor=default;align=center;verticalAlign=middle;fontFamily=Helvetica;fontSize=11;fontColor=default;labelBackgroundColor=default;endArrow=classic;" edge="1" parent="WIyWlLk6GJQsqaUBKTNV-1" source="NNcjx37EwXT--_4ioJn4-18" target="NNcjx37EwXT--_4ioJn4-34">
          <mxGeometry relative="1" as="geometry" />
        </mxCell>
        <mxCell id="NNcjx37EwXT--_4ioJn4-18" value="&lt;div style=&quot;line-height: 90%;&quot;&gt;&lt;font color=&quot;#ff00ff&quot;&gt;[first]&lt;/font&gt; får värdet 0&lt;/div&gt;&lt;div style=&quot;line-height: 160%;&quot;&gt;&lt;br&gt;&lt;/div&gt;&lt;div style=&quot;line-height: 100%;&quot;&gt;&lt;font color=&quot;#ff6666&quot;&gt;[last]&lt;/font&gt; får värdet av &lt;font color=&quot;#00cc00&quot;&gt;[inläggslistans]&lt;/font&gt; längd - 1&lt;br&gt;&lt;/div&gt;" style="rounded=1;whiteSpace=wrap;html=1;fontSize=12;glass=0;strokeWidth=1;shadow=0;fillColor=#bac8d3;strokeColor=#23445d;" vertex="1" parent="WIyWlLk6GJQsqaUBKTNV-1">
          <mxGeometry x="344.5" y="210" width="140" height="70" as="geometry" />
        </mxCell>
        <mxCell id="NNcjx37EwXT--_4ioJn4-54" style="edgeStyle=orthogonalEdgeStyle;shape=connector;curved=0;rounded=1;orthogonalLoop=1;jettySize=auto;html=1;exitX=0.5;exitY=1;exitDx=0;exitDy=0;entryX=0.5;entryY=0;entryDx=0;entryDy=0;strokeColor=default;align=center;verticalAlign=middle;fontFamily=Helvetica;fontSize=11;fontColor=default;labelBackgroundColor=default;endArrow=classic;" edge="1" parent="WIyWlLk6GJQsqaUBKTNV-1" source="NNcjx37EwXT--_4ioJn4-31" target="NNcjx37EwXT--_4ioJn4-3">
          <mxGeometry relative="1" as="geometry" />
        </mxCell>
        <mxCell id="NNcjx37EwXT--_4ioJn4-31" value="START" style="ellipse;whiteSpace=wrap;html=1;aspect=fixed;fillColor=#d5e8d4;strokeColor=#82b366;" vertex="1" parent="WIyWlLk6GJQsqaUBKTNV-1">
          <mxGeometry x="387.25" y="45.5" width="54.5" height="54.5" as="geometry" />
        </mxCell>
        <mxCell id="NNcjx37EwXT--_4ioJn4-48" style="edgeStyle=orthogonalEdgeStyle;shape=connector;curved=0;rounded=1;orthogonalLoop=1;jettySize=auto;html=1;exitX=0.5;exitY=1;exitDx=0;exitDy=0;entryX=0.5;entryY=0;entryDx=0;entryDy=0;strokeColor=default;align=center;verticalAlign=middle;fontFamily=Helvetica;fontSize=11;fontColor=default;labelBackgroundColor=default;endArrow=classic;" edge="1" parent="WIyWlLk6GJQsqaUBKTNV-1" source="NNcjx37EwXT--_4ioJn4-34" target="NNcjx37EwXT--_4ioJn4-36">
          <mxGeometry relative="1" as="geometry" />
        </mxCell>
        <mxCell id="NNcjx37EwXT--_4ioJn4-62" value="NEJ" style="edgeLabel;html=1;align=center;verticalAlign=middle;resizable=0;points=[];fontFamily=Helvetica;fontSize=11;fontColor=default;labelBackgroundColor=default;" vertex="1" connectable="0" parent="NNcjx37EwXT--_4ioJn4-48">
          <mxGeometry x="-0.219" y="1" relative="1" as="geometry">
            <mxPoint x="-2" as="offset" />
          </mxGeometry>
        </mxCell>
        <mxCell id="NNcjx37EwXT--_4ioJn4-59" style="edgeStyle=orthogonalEdgeStyle;shape=connector;curved=0;rounded=1;orthogonalLoop=1;jettySize=auto;html=1;exitX=0;exitY=0.5;exitDx=0;exitDy=0;entryX=1;entryY=0.5;entryDx=0;entryDy=0;strokeColor=default;align=center;verticalAlign=middle;fontFamily=Helvetica;fontSize=11;fontColor=default;labelBackgroundColor=default;endArrow=classic;" edge="1" parent="WIyWlLk6GJQsqaUBKTNV-1" source="NNcjx37EwXT--_4ioJn4-34" target="NNcjx37EwXT--_4ioJn4-55">
          <mxGeometry relative="1" as="geometry" />
        </mxCell>
        <mxCell id="NNcjx37EwXT--_4ioJn4-67" value="JA" style="edgeLabel;html=1;align=center;verticalAlign=middle;resizable=0;points=[];fontFamily=Helvetica;fontSize=11;fontColor=default;labelBackgroundColor=default;" vertex="1" connectable="0" parent="NNcjx37EwXT--_4ioJn4-59">
          <mxGeometry x="0.0439" y="-1" relative="1" as="geometry">
            <mxPoint x="4" y="1" as="offset" />
          </mxGeometry>
        </mxCell>
        <mxCell id="NNcjx37EwXT--_4ioJn4-34" value="&lt;div&gt;Är &lt;font color=&quot;#ff00ff&quot;&gt;[first]&lt;/font&gt;&amp;nbsp;&lt;/div&gt;&lt;div&gt;större än &lt;font color=&quot;#ff6666&quot;&gt;&lt;br&gt;&lt;/font&gt;&lt;/div&gt;&lt;div&gt;&lt;font color=&quot;#ff6666&quot;&gt;[last]&lt;/font&gt;?&lt;/div&gt;" style="rhombus;whiteSpace=wrap;html=1;fillColor=#bac8d3;strokeColor=#23445d;" vertex="1" parent="WIyWlLk6GJQsqaUBKTNV-1">
          <mxGeometry x="365.75" y="320" width="97.5" height="80" as="geometry" />
        </mxCell>
        <mxCell id="NNcjx37EwXT--_4ioJn4-49" style="edgeStyle=orthogonalEdgeStyle;shape=connector;curved=0;rounded=1;orthogonalLoop=1;jettySize=auto;html=1;exitX=0.5;exitY=1;exitDx=0;exitDy=0;entryX=0.5;entryY=0;entryDx=0;entryDy=0;strokeColor=default;align=center;verticalAlign=middle;fontFamily=Helvetica;fontSize=11;fontColor=default;labelBackgroundColor=default;endArrow=classic;" edge="1" parent="WIyWlLk6GJQsqaUBKTNV-1" source="NNcjx37EwXT--_4ioJn4-36" target="NNcjx37EwXT--_4ioJn4-38">
          <mxGeometry relative="1" as="geometry" />
        </mxCell>
        <mxCell id="NNcjx37EwXT--_4ioJn4-36" value="&lt;div&gt;&lt;font color=&quot;#663300&quot;&gt;[mid]&lt;/font&gt; får värdet&amp;nbsp;&lt;/div&gt;&lt;div&gt;(&lt;font color=&quot;#ff00ff&quot;&gt;[first]&lt;/font&gt; + &lt;font color=&quot;#ff6666&quot;&gt;[last]&lt;/font&gt;) / 2&lt;/div&gt;" style="rounded=1;whiteSpace=wrap;html=1;fontSize=12;glass=0;strokeWidth=1;shadow=0;fillColor=#bac8d3;strokeColor=#23445d;" vertex="1" parent="WIyWlLk6GJQsqaUBKTNV-1">
          <mxGeometry x="367.5" y="440" width="95" height="44.5" as="geometry" />
        </mxCell>
        <mxCell id="NNcjx37EwXT--_4ioJn4-50" style="edgeStyle=orthogonalEdgeStyle;shape=connector;curved=0;rounded=1;orthogonalLoop=1;jettySize=auto;html=1;exitX=1;exitY=0.5;exitDx=0;exitDy=0;entryX=0;entryY=0.5;entryDx=0;entryDy=0;strokeColor=default;align=center;verticalAlign=middle;fontFamily=Helvetica;fontSize=11;fontColor=default;labelBackgroundColor=default;endArrow=classic;" edge="1" parent="WIyWlLk6GJQsqaUBKTNV-1" source="NNcjx37EwXT--_4ioJn4-38" target="NNcjx37EwXT--_4ioJn4-42">
          <mxGeometry relative="1" as="geometry" />
        </mxCell>
        <mxCell id="NNcjx37EwXT--_4ioJn4-64" value="NEJ" style="edgeLabel;html=1;align=center;verticalAlign=middle;resizable=0;points=[];fontFamily=Helvetica;fontSize=11;fontColor=default;labelBackgroundColor=default;" vertex="1" connectable="0" parent="NNcjx37EwXT--_4ioJn4-50">
          <mxGeometry x="-0.3771" y="2" relative="1" as="geometry">
            <mxPoint x="3" y="2" as="offset" />
          </mxGeometry>
        </mxCell>
        <mxCell id="NNcjx37EwXT--_4ioJn4-53" style="edgeStyle=orthogonalEdgeStyle;shape=connector;curved=0;rounded=1;orthogonalLoop=1;jettySize=auto;html=1;exitX=0;exitY=0.5;exitDx=0;exitDy=0;entryX=1;entryY=0.5;entryDx=0;entryDy=0;strokeColor=default;align=center;verticalAlign=middle;fontFamily=Helvetica;fontSize=11;fontColor=default;labelBackgroundColor=default;endArrow=classic;" edge="1" parent="WIyWlLk6GJQsqaUBKTNV-1" source="NNcjx37EwXT--_4ioJn4-38" target="NNcjx37EwXT--_4ioJn4-52">
          <mxGeometry relative="1" as="geometry" />
        </mxCell>
        <mxCell id="NNcjx37EwXT--_4ioJn4-63" value="JA" style="edgeLabel;html=1;align=center;verticalAlign=middle;resizable=0;points=[];fontFamily=Helvetica;fontSize=11;fontColor=default;labelBackgroundColor=default;" vertex="1" connectable="0" parent="NNcjx37EwXT--_4ioJn4-53">
          <mxGeometry x="-0.0884" relative="1" as="geometry">
            <mxPoint as="offset" />
          </mxGeometry>
        </mxCell>
        <mxCell id="NNcjx37EwXT--_4ioJn4-38" value="&lt;div&gt;&lt;br&gt;&lt;/div&gt;&lt;div&gt;Matchar&lt;/div&gt;&lt;div style=&quot;padding-top: 0px; padding-bottom: 0px; margin-bottom: 0px;&quot;&gt;&lt;font color=&quot;#004c99&quot;&gt;[sökordet]&lt;/font&gt; titeln &lt;br&gt;&lt;/div&gt;&lt;div&gt;vid index &lt;font color=&quot;#663300&quot;&gt;[mid]&lt;/font&gt; i&amp;nbsp;&lt;/div&gt;&lt;div&gt;&lt;font color=&quot;#00cc00&quot;&gt;&amp;nbsp;[inläggslistan]&lt;/font&gt;?&lt;/div&gt;&lt;div&gt;&lt;br&gt;&lt;/div&gt;&lt;div&gt;&lt;br&gt;&lt;/div&gt;" style="rhombus;whiteSpace=wrap;html=1;fillColor=#bac8d3;strokeColor=#23445d;" vertex="1" parent="WIyWlLk6GJQsqaUBKTNV-1">
          <mxGeometry x="350" y="520" width="130" height="110" as="geometry" />
        </mxCell>
        <mxCell id="NNcjx37EwXT--_4ioJn4-47" style="edgeStyle=orthogonalEdgeStyle;shape=connector;curved=0;rounded=1;orthogonalLoop=1;jettySize=auto;html=1;exitX=0.5;exitY=0;exitDx=0;exitDy=0;strokeColor=default;align=center;verticalAlign=middle;fontFamily=Helvetica;fontSize=11;fontColor=default;labelBackgroundColor=default;endArrow=classic;" edge="1" parent="WIyWlLk6GJQsqaUBKTNV-1" source="NNcjx37EwXT--_4ioJn4-40">
          <mxGeometry relative="1" as="geometry">
            <mxPoint x="415" y="300" as="targetPoint" />
            <Array as="points">
              <mxPoint x="660" y="300" />
            </Array>
          </mxGeometry>
        </mxCell>
        <mxCell id="NNcjx37EwXT--_4ioJn4-40" value="&lt;font color=&quot;#ff00ff&quot;&gt;[first]&lt;/font&gt; blir &lt;font color=&quot;#663300&quot;&gt;[mid]&lt;/font&gt; + 1" style="rounded=1;whiteSpace=wrap;html=1;fontSize=12;glass=0;strokeWidth=1;shadow=0;fillColor=#bac8d3;strokeColor=#23445d;" vertex="1" parent="WIyWlLk6GJQsqaUBKTNV-1">
          <mxGeometry x="630" y="400" width="60" height="40" as="geometry" />
        </mxCell>
        <mxCell id="NNcjx37EwXT--_4ioJn4-44" style="edgeStyle=orthogonalEdgeStyle;shape=connector;curved=0;rounded=1;orthogonalLoop=1;jettySize=auto;html=1;exitX=1;exitY=0;exitDx=0;exitDy=0;entryX=0.5;entryY=1;entryDx=0;entryDy=0;strokeColor=default;align=center;verticalAlign=middle;fontFamily=Helvetica;fontSize=11;fontColor=default;labelBackgroundColor=default;endArrow=classic;" edge="1" parent="WIyWlLk6GJQsqaUBKTNV-1" source="NNcjx37EwXT--_4ioJn4-42" target="NNcjx37EwXT--_4ioJn4-40">
          <mxGeometry relative="1" as="geometry">
            <Array as="points">
              <mxPoint x="660" y="543" />
            </Array>
          </mxGeometry>
        </mxCell>
        <mxCell id="NNcjx37EwXT--_4ioJn4-65" value="JA" style="edgeLabel;html=1;align=center;verticalAlign=middle;resizable=0;points=[];fontFamily=Helvetica;fontSize=11;fontColor=default;labelBackgroundColor=default;" vertex="1" connectable="0" parent="NNcjx37EwXT--_4ioJn4-44">
          <mxGeometry x="0.2876" y="-1" relative="1" as="geometry">
            <mxPoint x="-2" as="offset" />
          </mxGeometry>
        </mxCell>
        <mxCell id="NNcjx37EwXT--_4ioJn4-45" style="edgeStyle=orthogonalEdgeStyle;shape=connector;curved=0;rounded=1;orthogonalLoop=1;jettySize=auto;html=1;exitX=0;exitY=0;exitDx=0;exitDy=0;entryX=0.5;entryY=1;entryDx=0;entryDy=0;strokeColor=default;align=center;verticalAlign=middle;fontFamily=Helvetica;fontSize=11;fontColor=default;labelBackgroundColor=default;endArrow=classic;" edge="1" parent="WIyWlLk6GJQsqaUBKTNV-1" source="NNcjx37EwXT--_4ioJn4-42" target="NNcjx37EwXT--_4ioJn4-43">
          <mxGeometry relative="1" as="geometry">
            <Array as="points">
              <mxPoint x="540" y="543" />
            </Array>
          </mxGeometry>
        </mxCell>
        <mxCell id="NNcjx37EwXT--_4ioJn4-66" value="NEJ" style="edgeLabel;html=1;align=center;verticalAlign=middle;resizable=0;points=[];fontFamily=Helvetica;fontSize=11;fontColor=default;labelBackgroundColor=default;" vertex="1" connectable="0" parent="NNcjx37EwXT--_4ioJn4-45">
          <mxGeometry x="0.3411" y="2" relative="1" as="geometry">
            <mxPoint x="1" y="4" as="offset" />
          </mxGeometry>
        </mxCell>
        <mxCell id="NNcjx37EwXT--_4ioJn4-42" value="&lt;div&gt;&lt;br&gt;&lt;/div&gt;&lt;div&gt;Har titeln &lt;br&gt;&lt;/div&gt;&lt;div&gt;vid index &lt;font color=&quot;#663300&quot;&gt;[mid]&lt;/font&gt; i&amp;nbsp;&lt;/div&gt;&lt;div&gt;&lt;font color=&quot;#00cc00&quot;&gt;&amp;nbsp;[inläggslistan]&lt;/font&gt; ett större värde än &lt;br&gt;&lt;/div&gt;&lt;div&gt;&lt;font color=&quot;#004c99&quot;&gt;[sökordet]&lt;/font&gt;?&lt;/div&gt;&lt;div&gt;&lt;br&gt;&lt;/div&gt;" style="rhombus;whiteSpace=wrap;html=1;fillColor=#bac8d3;strokeColor=#23445d;" vertex="1" parent="WIyWlLk6GJQsqaUBKTNV-1">
          <mxGeometry x="530" y="510" width="140" height="130" as="geometry" />
        </mxCell>
        <mxCell id="NNcjx37EwXT--_4ioJn4-46" style="edgeStyle=orthogonalEdgeStyle;shape=connector;curved=0;rounded=1;orthogonalLoop=1;jettySize=auto;html=1;exitX=0.5;exitY=0;exitDx=0;exitDy=0;strokeColor=default;align=center;verticalAlign=middle;fontFamily=Helvetica;fontSize=11;fontColor=default;labelBackgroundColor=default;endArrow=classic;" edge="1" parent="WIyWlLk6GJQsqaUBKTNV-1" source="NNcjx37EwXT--_4ioJn4-43">
          <mxGeometry relative="1" as="geometry">
            <mxPoint x="415" y="300" as="targetPoint" />
            <Array as="points">
              <mxPoint x="540" y="300" />
            </Array>
          </mxGeometry>
        </mxCell>
        <mxCell id="NNcjx37EwXT--_4ioJn4-43" value="&lt;font color=&quot;#ff6666&quot;&gt;[last]&lt;/font&gt; blir &lt;font color=&quot;#663300&quot;&gt;[mid]&lt;/font&gt; - 1" style="rounded=1;whiteSpace=wrap;html=1;fontSize=12;glass=0;strokeWidth=1;shadow=0;fillColor=#bac8d3;strokeColor=#23445d;" vertex="1" parent="WIyWlLk6GJQsqaUBKTNV-1">
          <mxGeometry x="510" y="400" width="60" height="40" as="geometry" />
        </mxCell>
        <mxCell id="NNcjx37EwXT--_4ioJn4-61" style="edgeStyle=orthogonalEdgeStyle;shape=connector;curved=0;rounded=1;orthogonalLoop=1;jettySize=auto;html=1;exitX=0.5;exitY=0;exitDx=0;exitDy=0;entryX=0.5;entryY=1;entryDx=0;entryDy=0;strokeColor=default;align=center;verticalAlign=middle;fontFamily=Helvetica;fontSize=11;fontColor=default;labelBackgroundColor=default;endArrow=classic;" edge="1" parent="WIyWlLk6GJQsqaUBKTNV-1" source="NNcjx37EwXT--_4ioJn4-52" target="NNcjx37EwXT--_4ioJn4-58">
          <mxGeometry relative="1" as="geometry" />
        </mxCell>
        <mxCell id="NNcjx37EwXT--_4ioJn4-52" value="Meddela att en sökträff hittats vid index &lt;font color=&quot;#663300&quot;&gt;[mid]&lt;/font&gt;" style="rounded=1;whiteSpace=wrap;html=1;fillColor=#bac8d3;strokeColor=#23445d;" vertex="1" parent="WIyWlLk6GJQsqaUBKTNV-1">
          <mxGeometry x="200" y="551.25" width="87" height="47.5" as="geometry" />
        </mxCell>
        <mxCell id="NNcjx37EwXT--_4ioJn4-60" style="edgeStyle=orthogonalEdgeStyle;shape=connector;curved=0;rounded=1;orthogonalLoop=1;jettySize=auto;html=1;exitX=0.5;exitY=1;exitDx=0;exitDy=0;entryX=0.5;entryY=0;entryDx=0;entryDy=0;strokeColor=default;align=center;verticalAlign=middle;fontFamily=Helvetica;fontSize=11;fontColor=default;labelBackgroundColor=default;endArrow=classic;" edge="1" parent="WIyWlLk6GJQsqaUBKTNV-1" source="NNcjx37EwXT--_4ioJn4-55" target="NNcjx37EwXT--_4ioJn4-58">
          <mxGeometry relative="1" as="geometry" />
        </mxCell>
        <mxCell id="NNcjx37EwXT--_4ioJn4-55" value="Meddela att inga sökträffar hittats" style="rounded=1;whiteSpace=wrap;html=1;fillColor=#bac8d3;strokeColor=#23445d;" vertex="1" parent="WIyWlLk6GJQsqaUBKTNV-1">
          <mxGeometry x="195" y="343.12" width="97" height="33.75" as="geometry" />
        </mxCell>
        <mxCell id="NNcjx37EwXT--_4ioJn4-58" value="STOPP" style="ellipse;whiteSpace=wrap;html=1;aspect=fixed;fillColor=#f8cecc;strokeColor=#b85450;" vertex="1" parent="WIyWlLk6GJQsqaUBKTNV-1">
          <mxGeometry x="216.25" y="435" width="54.5" height="54.5" as="geometry" />
        </mxCell>
      </root>
    </mxGraphModel>
  </diagram>
</mxfile>
